<svg xmlns="http://www.w3.org/2000/svg" viewBox="0 0 194.12 219.21" width="195" height="220"><defs><style>.cls-1{fill:#005a49}.cls-2{fill:#fff}</style></defs><path class="cls-1" d="M105.05 110.66l-.55-3.78-86.95 12.4.53 3.79 86.97-12.41z"/><path class="cls-1" d="M104.45 108.83l-1.59-3.47-79.97 36.36 1.57 3.44 79.99-36.33z"/><path class="cls-1" d="M101.73 107.93l-.5 3.78-87.06-11.8.53-3.77 87.03 11.79z"/><path class="cls-1" d="M103.44 112.29l-1.63 3.44-79.45-37.49L24 74.78l79.44 37.51zM7.74 148.9a11 11 0 01-.26-8.18 10.57 10.57 0 015.71-6.05 10.39 10.39 0 018.24-.18 10.34 10.34 0 016 5.61 10.65 10.65 0 01.23 8.35 10.53 10.53 0 01-5.67 5.9 10.71 10.71 0 01-8.3.23 11 11 0 01-5.95-5.68zM.27 123.1a11.18 11.18 0 012-8 10.89 10.89 0 017.15-4.27 10.5 10.5 0 018 2.1 10.39 10.39 0 014.25 7 10.72 10.72 0 01-2.06 8.1 10.55 10.55 0 01-7.07 4.13 10.62 10.62 0 01-8-2 11.1 11.1 0 01-4.27-7.06zm-.2-26.77a11.17 11.17 0 014.05-7.14 10.59 10.59 0 018-2.18 10.29 10.29 0 017.12 4.15 10.33 10.33 0 012.2 7.92 10.89 10.89 0 01-4.16 7.26 10.6 10.6 0 01-7.91 2 10.62 10.62 0 01-7.22-4.13 11.09 11.09 0 01-2.08-7.88z"/><path class="cls-1" d="M7.15 70.43A11.16 11.16 0 0113 64.69a10.69 10.69 0 018.33.08A10.42 10.42 0 0127 70.7a10.39 10.39 0 010 8.24 10.7 10.7 0 01-14.15 5.65A10.6 10.6 0 017 78.65a11.13 11.13 0 01.15-8.22zm81.95 40.23l.52-3.78 86.96 12.4-.54 3.79-86.94-12.41z"/><path class="cls-1" d="M89.69 108.83l1.57-3.47 79.98 36.36-1.58 3.44-79.97-36.33z"/><path class="cls-1" d="M92.4 107.93l.5 3.78 87.06-11.8-.54-3.77-87.02 11.79z"/><path class="cls-1" d="M90.7 112.29l1.63 3.44 79.42-37.49-1.61-3.46-79.44 37.51zm89.75 42.29a10.73 10.73 0 01-8.31-.23 10.5 10.5 0 01-5.67-5.9 10.74 10.74 0 01.22-8.35 10.93 10.93 0 0114.25-5.43 10.54 10.54 0 015.71 6.05 10.84 10.84 0 01-6.2 13.86zm9.24-24.4a10.87 10.87 0 01-15.12-2.08 10.84 10.84 0 01-2.06-8.1 11 11 0 0112.22-9.14 10.83 10.83 0 017.13 4.27 10.83 10.83 0 01-2.17 15.05zm2.31-25.92a10.94 10.94 0 01-15.14 2.08 10.79 10.79 0 01-4.14-7.26 10.37 10.37 0 012.19-7.92A10.25 10.25 0 01182 87a10.61 10.61 0 018 2.18 10.91 10.91 0 012 15.07zm-4.88-25.61a10.77 10.77 0 01-20 .29 10.91 10.91 0 015.66-14.17 10.65 10.65 0 018.31-.08 10.83 10.83 0 016 14z"/><path class="cls-2" d="M95.8 122.12v-.64a10.65 10.65 0 00-10.63-10.67 10.5 10.5 0 00-1.77.16c-3.43-.59-8.22.68-12.7 3.65a21.24 21.24 0 00-7.56 8.38 18.38 18.38 0 00-9.43 4.34 19.65 19.65 0 00-5.77 7.35 13.91 13.91 0 00-7.32 4.38 15.16 15.16 0 00-3.66 6.2c-2.22.08-5.06 1.68-7.35 4.35a12.74 12.74 0 00-3.2 6.65 11.85 11.85 0 00-5.16 4.1 12 12 0 00-2.42 5.67A11.19 11.19 0 0015 170c-1.51 2.56-2 5.23-1.39 7a8.82 8.82 0 00-3.83 4.29c-1.27 2.75-1.32 5.52-.27 6.91A7.62 7.62 0 006 192.3c-1.15 2.7-1 5.43.26 6.48 1.08 1.11 3.67 1.3 6.3.31a7.56 7.56 0 004.28-3.39c1.33 1.09 4.12 1.16 6.91 0a8.85 8.85 0 004.43-3.7c1.7.67 4.39.29 7-1.15a10.87 10.87 0 004.07-3.65A12.14 12.14 0 0045 185a11.67 11.67 0 004.27-5 12.8 12.8 0 006.73-2.95c2.77-2.21 4.44-5 4.62-7.2a15.4 15.4 0 006.38-3.43 13.75 13.75 0 004.64-7.15 19.57 19.57 0 007.57-5.49 18.67 18.67 0 004.7-9.28 21.31 21.31 0 008.64-7.26c4.02-5.57 5.22-11.81 3.25-15.12z"/><path class="cls-1" d="M83.27 110c-3.52-.66-8.53.75-13.08 3.81a22.22 22.22 0 00-7.65 8.37 19.69 19.69 0 00-9.46 4.41 20.58 20.58 0 00-5.81 7.34 14.85 14.85 0 00-7.36 4.48 16.11 16.11 0 00-3.58 6.09 12.39 12.39 0 00-7.46 4.5 14.15 14.15 0 00-3.28 6.65 13 13 0 00-5.13 4.16 13.13 13.13 0 00-2.46 5.72 12.29 12.29 0 00-5.64 9.74 6.17 6.17 0 00.19 1.25 10.32 10.32 0 00-3.67 4.33 11 11 0 00-1.12 4.6 5.43 5.43 0 00.68 2.32 8.94 8.94 0 00-3.41 4.14 10.34 10.34 0 00-.84 3.92 4.73 4.73 0 001.37 3.69c1.35 1.39 4.3 1.62 7.28.49a8.7 8.7 0 004.3-3.27 8.32 8.32 0 006.93-.18 10 10 0 004.49-3.56 10.14 10.14 0 007.07-1.31 11.65 11.65 0 004.1-3.7 13.25 13.25 0 0010.14-7.21 14 14 0 006.78-3 12.63 12.63 0 004.77-7.31 16.5 16.5 0 006.21-3.33 14.79 14.79 0 004.73-7.14 20.24 20.24 0 007.57-5.53 19.78 19.78 0 004.76-9.3 22.16 22.16 0 008.63-7.32c2.84-3.92 4.39-8.26 4.39-11.81a8.59 8.59 0 00-1.07-4.38l.16-.14a11.62 11.62 0 00-11.61-11.63zm1.92 1.8a9.66 9.66 0 019.65 9.67v.89l.16.25c1.82 3 .46 9-3.21 14a20.17 20.17 0 01-8.23 6.93l-.52.21-.08.56a17.67 17.67 0 01-4.46 8.77 18.46 18.46 0 01-7.17 5.21l-.52.19-.11.54a12.89 12.89 0 01-4.31 6.6 14.28 14.28 0 01-5.91 3.22l-.7.15-.05.71c-.16 2.05-1.83 4.59-4.27 6.5a11.52 11.52 0 01-6.26 2.8h-.62l-.24.58a10.64 10.64 0 01-3.91 4.57 11.28 11.28 0 01-5.27 2h-.49l-.27.42a10 10 0 01-3.7 3.43c-2.26 1.23-4.68 1.65-6.17 1.06l-.83-.31-.4.78a7.73 7.73 0 01-4 3.21c-2.66 1.14-5 1-5.91.19l-1-.8-.53 1.14a6.81 6.81 0 01-3.74 2.89c-2.37.91-4.54.66-5.27-.08s-1.07-3-.06-5.41a6.77 6.77 0 013-3.64l1.15-.49-.76-1c-.73-1-.84-3.29.39-5.9a8 8 0 013.43-3.82l.8-.37-.3-.85c-.51-1.52 0-3.9 1.33-6.13a9.68 9.68 0 013.44-3.54l.44-.25.05-.53A11.26 11.26 0 0122 161a10.53 10.53 0 014.69-3.74l.59-.2.06-.65a12.1 12.1 0 013-6.13c2-2.33 4.64-3.92 6.66-4h.71l.19-.69a14.41 14.41 0 013.43-5.78 12.93 12.93 0 016.77-4.1l.54-.08.2-.51a18.65 18.65 0 015.48-7 17.45 17.45 0 018.91-4.12l.58-.06.23-.51a20.31 20.31 0 017.23-8c4.08-2.69 8.68-4 12-3.47.31.04 1.92-.15 1.92-.15z"/><path class="cls-1" d="M79.885 125.577l1.955-.14 1.185 16.618-1.955.14zm-10.855 10.72l1.944-.14 1.052 14.562-1.945.14zM58.17 147.04l.9 12.51 1.94-.13-.89-12.52-1.95.14zm-10.842 10.726l1.944-.147 1.102 14.548-1.945.147zM36.47 168.49l1.12 13.73 1.95-.17-1.11-13.71-1.96.15zm-10.85 10.69l.52 10.19 1.95-.1-.52-10.19-1.95.1zm-10.082 11.246l1.95-.156.35 4.37-1.95.156z"/><path class="cls-1" d="M63.85 125.72l16.56 1.39.17-1.95L64 123.79l-.15 1.93zm-8.812 10.924l.162-1.963 14.54 1.195-.16 1.964zM46.24 147.54l12.51 1.03.16-1.93-12.51-1.06-.16 1.96zm-12.86 10.51l14.52 1.26.17-1.94-14.52-1.28-.17 1.96zm-10.022 10.719l.179-1.932 13.691 1.27-.18 1.932zM16.07 180.14l10.18.63.11-1.94-10.17-.63-.12 1.94zm-5.035 10.992l.16-1.944 4.356.36-.16 1.943z"/><path class="cls-1" d="M6.77 196.95l1.37 1.4 86.2-84.58-1.37-1.39-86.2 84.57z"/><path class="cls-2" d="M111.31 109.14h-.65A10.64 10.64 0 00100 119.75a11.86 11.86 0 00.15 1.77c-.58 3.42.66 8.21 3.64 12.68a21.1 21.1 0 008.38 7.59 18.59 18.59 0 004.34 9.43 19.92 19.92 0 007.39 5.78 13.94 13.94 0 004.39 7.33 15.33 15.33 0 006.2 3.64c.08 2.22 1.66 5.06 4.33 7.35a12.79 12.79 0 006.68 3.22 11.43 11.43 0 004.09 5.15 12 12 0 005.68 2.41 10.52 10.52 0 003.9 3.82c2.54 1.51 5.23 2 7 1.39a8.77 8.77 0 004.31 3.83c2.76 1.27 5.53 1.32 6.91.28a7.63 7.63 0 004.14 3.55c2.71 1.13 5.41 1 6.48-.25s1.31-3.69.33-6.32a7.53 7.53 0 00-3.39-4.26c1.1-1.35 1.15-4.13 0-6.93a8.93 8.93 0 00-3.68-4.44c.66-1.72.29-4.39-1.13-7a11 11 0 00-3.67-4.07 12 12 0 00-2.21-5.75 11.67 11.67 0 00-5-4.28 12.78 12.78 0 00-2.95-6.76c-2.2-2.77-5-4.45-7.21-4.61a14.91 14.91 0 00-3.41-6.34 13.87 13.87 0 00-7.16-4.66 19.52 19.52 0 00-5.48-7.56 19 19 0 00-9.35-4.74 20.9 20.9 0 00-7.26-8.62c-5.58-4-11.79-5.21-15.13-3.24z"/><path class="cls-1" d="M110.81 108.32l-.15-.17a11.61 11.61 0 00-11.6 11.6l.16 1.91a9.45 9.45 0 00-.16 1.81c0 3.33 1.41 7.45 4 11.28a22.37 22.37 0 008.35 7.66 20.12 20.12 0 004.41 9.46 21 21 0 007.36 5.8 14.91 14.91 0 004.47 7.36 15.88 15.88 0 006.09 3.57 12.53 12.53 0 004.49 7.47 14 14 0 006.66 3.27 12.77 12.77 0 004.14 5.13 13.2 13.2 0 005.74 2.43 11.66 11.66 0 003.94 3.86 10.29 10.29 0 007.06 1.6A10 10 0 00170 196a8.43 8.43 0 006.93.43 8.69 8.69 0 004.15 3.41c3.1 1.29 6.23 1.08 7.6-.53a4.9 4.9 0 001.23-3.59 10.69 10.69 0 00-.73-3.69 8.88 8.88 0 00-3.26-4.29 5.67 5.67 0 00.77-2.59 11.46 11.46 0 00-.93-4.33 10.33 10.33 0 00-3.54-4.48 6 6 0 00.26-1.5 11.94 11.94 0 00-1.58-5.57 11.74 11.74 0 00-3.7-4.1 13.18 13.18 0 00-2.22-5.81 12.83 12.83 0 00-5-4.33 14 14 0 00-3-6.77 12.43 12.43 0 00-7.3-4.76 16.11 16.11 0 00-3.34-6.21 14.89 14.89 0 00-7.2-4.76 20.84 20.84 0 00-5.54-7.56 20 20 0 00-9.28-4.76 22.58 22.58 0 00-7.32-8.62c-5.78-4.15-12.44-5.52-16.19-3.27zm1 1.66c3-1.8 9-.45 14.05 3.22a20.24 20.24 0 016.93 8.22l.21.53.56.08a17.43 17.43 0 018.76 4.46 18.51 18.51 0 015.23 7.15l.18.5.53.11a13 13 0 016.63 4.34 14.31 14.31 0 013.19 5.91l.15.7.72.05c2 .16 4.59 1.84 6.52 4.25a12.15 12.15 0 012.74 6.23v.63l.59.23a10.72 10.72 0 014.56 3.91 11.17 11.17 0 012 5.27v.5l.43.27a10 10 0 013.3 3.68c1.25 2.28 1.66 4.69 1.09 6.18l-.32.84.78.4a7.92 7.92 0 013.22 4c1.13 2.67.94 5 .16 5.92l-.79 1 1.13.54a6.81 6.81 0 012.91 3.73c.92 2.46.64 4.56-.1 5.26-.76.88-3 1.1-5.43.06a6.76 6.76 0 01-3.61-3l-.5-1.15-1 .76c-.93.72-3.27.82-5.89-.38a8.06 8.06 0 01-3.84-3.38l-.38-.78-.81.28c-1.53.52-3.94 0-6.15-1.3a9.79 9.79 0 01-3.56-3.46l-.24-.45h-.5a11.09 11.09 0 01-5.2-2.22 10.76 10.76 0 01-3.76-4.71l-.2-.58-.61-.06a12 12 0 01-6.14-3c-2.35-2-3.93-4.66-4-6.65v-.72l-.69-.18a14.53 14.53 0 01-5.79-3.43 13.09 13.09 0 01-4.07-6.76l-.09-.57-.5-.2a18.49 18.49 0 01-7-5.47 17.55 17.55 0 01-4.12-8.91l-.06-.59-.52-.23a19.89 19.89 0 01-7.95-7.21c-2.73-4.08-4.08-8.69-3.51-12 0-.3-.14-1.92-.14-1.92a9.68 9.68 0 019.66-9.66h.91z"/><path class="cls-1" d="M114.65 123.12l.14 1.94 16.59-1.18-.14-1.95-16.59 1.19zm10.707 10.867l14.552-1.053.14 1.935-14.552 1.053zM136.09 144.8l.14 1.96 12.52-.9-.14-1.94-12.52.88zm10.73 10.86l.15 1.96 14.51-1.1-.15-1.95-14.51 1.09zm10.7 10.84l.16 1.97 13.72-1.12-.16-1.96-13.72 1.11zm10.77 10.87l.09 1.94 10.18-.5-.11-1.95-10.16.51zm10.7 10.85l.14 1.94 4.34-.32-.14-1.93-4.34.31z"/><path class="cls-1" d="M112.99 140.92l1.95.16 1.37-16.58-1.94-.15-1.38 16.57zm10.9 8.81l1.95.15 1.21-14.54-1.95-.16-1.21 14.55zm10.9 8.8l1.94.16 1.04-12.52-1.95-.16-1.03 12.52zm10.52 12.84l1.95.18 1.25-14.51-1.94-.17-1.26 14.5zm10.71 10.02l1.95.18 1.26-13.68-1.94-.18-1.27 13.68zm11.37 7.35l1.94.13.65-10.18-1.96-.11-.63 10.16zm11 5.01l1.95.15.37-4.35-1.96-.15-.36 4.35z"/><path class="cls-1" d="M101.59 111.97l84.55 86.21 1.4-1.39-84.57-86.2-1.38 1.38z"/><path class="cls-2" d="M98.35 97.09v.64A10.64 10.64 0 00109 108.36a10.31 10.31 0 001.77-.16c3.44.61 8.21-.64 12.69-3.65a20.81 20.81 0 007.54-8.34 19.23 19.23 0 009.46-4.34 19.7 19.7 0 005.76-7.38 13.82 13.82 0 007.32-4.38 15.29 15.29 0 003.67-6.2c2.2-.09 5.06-1.66 7.35-4.35a12.85 12.85 0 003.2-6.66 11.44 11.44 0 005.15-4.1 12 12 0 002.43-5.65 10.79 10.79 0 003.81-3.94c1.52-2.53 2-5.22 1.4-6.94a9 9 0 003.8-4.27c1.28-2.76 1.34-5.53.29-6.89a7.76 7.76 0 003.54-4.15c1.13-2.72 1-5.42-.25-6.47s-3.69-1.33-6.34-.36a7.82 7.82 0 00-4.25 3.4c-1.34-1.09-4.12-1.14-6.91 0a9 9 0 00-4.43 3.66c-1.71-.65-4.41-.28-7 1.13a10.81 10.81 0 00-4 3.68 11.9 11.9 0 00-5.77 2.2 11.75 11.75 0 00-4.27 5 12.73 12.73 0 00-6.79 3c-2.75 2.18-4.43 5-4.61 7.18a15.13 15.13 0 00-6.32 3.43 13.66 13.66 0 00-4.64 7.14 20 20 0 00-7.58 5.48 18.89 18.89 0 00-4.68 9.29 21 21 0 00-8.71 7.28c-4.05 5.54-5.28 11.74-3.28 15.09z"/><path class="cls-1" d="M181.25 19.17a9 9 0 00-4.25 3.29 8.56 8.56 0 00-6.92.15 10.19 10.19 0 00-4.46 3.55 10.37 10.37 0 00-7.09 1.31 11.38 11.38 0 00-4.08 3.72 12.77 12.77 0 00-5.83 2.21 13 13 0 00-4.34 5 13.89 13.89 0 00-6.76 3 12.58 12.58 0 00-4.76 7.29A16.08 16.08 0 00126.5 52a14.93 14.93 0 00-4.73 7.19 20.65 20.65 0 00-7.56 5.54 19.85 19.85 0 00-4.75 9.3 22 22 0 00-8.63 7.32c-2.84 3.91-4.37 8.24-4.37 11.8a8.56 8.56 0 001.06 4.4l-.18.14A11.63 11.63 0 00109 109.34l1.92-.16c3.52.66 8.54-.75 13.08-3.82a22 22 0 007.59-8.36 19.77 19.77 0 009.46-4.41 20.66 20.66 0 005.82-7.36 14.75 14.75 0 007.35-4.48 15.93 15.93 0 003.6-6.08 12.51 12.51 0 007.46-4.49 13.92 13.92 0 003.27-6.64 13.34 13.34 0 007.55-9.88 11.6 11.6 0 003.88-4 11.82 11.82 0 001.76-5.83 6.08 6.08 0 00-.18-1.22 10.22 10.22 0 003.67-4.31 11.15 11.15 0 001.11-4.64 5.38 5.38 0 00-.65-2.27 9.15 9.15 0 003.39-4.16 10.31 10.31 0 00.86-3.93 4.82 4.82 0 00-1.38-3.69c-1.36-1.32-4.33-1.54-7.31-.44zm-3 4.74a6.82 6.82 0 013.69-2.91c2.47-.93 4.56-.64 5.28.1.88.75 1.1 2.93.06 5.42a6.8 6.8 0 01-3 3.61l-1.15.51.76 1c.72.94.82 3.25-.4 5.88a8 8 0 01-3.34 3.85l-.8.37.28.82c.52 1.51 0 3.93-1.31 6.14a10.25 10.25 0 01-3.45 3.58l-.45.24v.5a11.08 11.08 0 01-2.23 5.19 10.7 10.7 0 01-4.77 3.79l-.6.22-.06.61a11.83 11.83 0 01-3 6.13c-2 2.36-4.63 3.93-6.64 4h-.73l-.18.69a14.36 14.36 0 01-3.43 5.78 12.88 12.88 0 01-6.78 4.1l-.54.09-.21.49a18.56 18.56 0 01-5.46 7 17.86 17.86 0 01-8.93 4.12h-.57l-.23.52a20.13 20.13 0 01-7.23 8c-4.09 2.75-8.67 4.08-12 3.5-.33 0-1.94.14-1.94.14a9.67 9.67 0 01-9.66-9.66c0-.32.06-.9.06-.9l-.16-.25c-1.82-3-.47-9 3.23-14a20.35 20.35 0 018.19-6.93l.53-.22.08-.56a17.73 17.73 0 014.45-8.74 18.46 18.46 0 017.18-5.22l.51-.21.11-.53a12.86 12.86 0 014.33-6.62 14.66 14.66 0 015.9-3.2l.71-.17.05-.71c.16-2 1.82-4.58 4.24-6.51a12.27 12.27 0 016.24-2.75h.62l.21-.57A12 12 0 01155 33h.5l.26-.43a9.94 9.94 0 013.68-3.33c2.25-1.22 4.69-1.64 6.2-1.08l.81.31.41-.77a8 8 0 014-3.22c2.66-1.1 5-.92 5.91-.16l1 .79z"/><path class="cls-1" d="M111.13 77.16l1.19 16.58 1.96-.14-1.2-16.58-1.95.14zm11.01-8.69l1.03 14.56 1.95-.14-1.05-14.56-1.93.14zm10.98-8.69l.89 12.53 1.96-.14-.91-12.53-1.94.14zm10.647-12.722l1.944-.148 1.106 14.538-1.944.148zM154.6 37.16l1.13 13.72 1.94-.16-1.13-13.71-1.94.15zm11.454-7.233l1.958-.099.513 10.167-1.957.099zm11.05-4.876l1.945-.14.314 4.36-1.945.139z"/><path class="cls-1" d="M113.54 94.02l16.6 1.38.15-1.94-16.59-1.38-.16 1.94zm10.87-10.717l.159-1.934 14.53 1.192-.158 1.934zm10.83-10.723l12.5 1.03.16-1.94-12.5-1.06-.16 1.97zm10.83-10.72l14.52 1.23.17-1.94-14.53-1.26-.16 1.97zm10.83-10.75l13.71 1.27.19-1.95-13.71-1.28-.19 1.96zm10.87-10.73l10.18.64.12-1.97-10.18-.62-.12 1.95zm10.819-10.73l.16-1.943 4.355.358-.16 1.943z"/><path class="cls-1" d="M99.8 105.41l1.36 1.42 86.22-84.57-1.37-1.39-86.21 84.54z"/><path class="cls-2" d="M82.82 110h.65a10.65 10.65 0 0010.64-10.57 11.5 11.5 0 00-.11-1.75c.59-3.43-.67-8.23-3.66-12.7a21.08 21.08 0 00-8.36-7.57 18.68 18.68 0 00-4.4-9.41 19.17 19.17 0 00-7.36-5.76 14 14 0 00-4.38-7.35 15.07 15.07 0 00-6.19-3.62c-.1-2.24-1.67-5.07-4.36-7.38a12.82 12.82 0 00-6.66-3.19 11.7 11.7 0 00-4.08-5.16 11.78 11.78 0 00-5.68-2.41A11 11 0 0035 29.27c-2.55-1.51-5.23-2-7-1.39a8.85 8.85 0 00-4.32-3.83c-2.73-1.26-5.52-1.33-6.9-.27a7.77 7.77 0 00-4.14-3.56c-2.71-1.13-5.42-1-6.47.28-1.17 1.11-1.33 3.67-.33 6.31a7.74 7.74 0 003.38 4.28c-1.1 1.32-1.16 4.09 0 6.88a8.86 8.86 0 003.65 4.46c-.64 1.7-.28 4.4 1.15 7a10.43 10.43 0 003.65 4.07 12 12 0 002.22 5.76 11.61 11.61 0 005 4.28 13.16 13.16 0 002.95 6.78c2.22 2.76 5 4.44 7.21 4.6a15.23 15.23 0 003.43 6.35 13.88 13.88 0 007.14 4.64 19.68 19.68 0 005.5 7.57 18.39 18.39 0 009.27 4.68 21.12 21.12 0 007.26 8.65c5.61 4 11.84 5.19 15.17 3.19z"/><path class="cls-1" d="M5.41 19.85a5 5 0 00-1.21 3.6 10.65 10.65 0 00.71 3.7 9 9 0 003.26 4.3A5.58 5.58 0 007.4 34a11.23 11.23 0 00.95 4.36 10 10 0 003.53 4.44 6.2 6.2 0 00-.26 1.52 11.66 11.66 0 001.58 5.56A11.2 11.2 0 0016.89 54a12.75 12.75 0 002.23 5.81 12.59 12.59 0 005 4.35 14 14 0 003 6.78 12.59 12.59 0 007.31 4.74 16.38 16.38 0 003.34 6.23A15.08 15.08 0 0045 86.65a21.14 21.14 0 005.54 7.55 19.94 19.94 0 009.25 4.8 22.37 22.37 0 007.32 8.63c5.79 4.19 12.45 5.55 16.21 3.29l.15.18a11.63 11.63 0 0011.61-11.67l-.17-1.89a9.59 9.59 0 00.16-1.83c0-3.3-1.42-7.45-4-11.26a22.44 22.44 0 00-8.36-7.64 19.73 19.73 0 00-4.42-9.46 20.32 20.32 0 00-7.29-5.8 14.81 14.81 0 00-4.46-7.38 16.43 16.43 0 00-6.09-3.57 12.64 12.64 0 00-4.5-7.47 13.87 13.87 0 00-6.66-3.28 13 13 0 00-9.86-7.53 11.72 11.72 0 00-4-3.88 10.47 10.47 0 00-7-1.59 10.19 10.19 0 00-4.32-3.68 8.61 8.61 0 00-6.92-.45 8.91 8.91 0 00-4.19-3.4c-3.11-1.32-6.23-1.08-7.59.53zM68.24 106a20 20 0 01-6.91-8.19l-.21-.52-.57-.08a17.89 17.89 0 01-8.77-4.45 18.91 18.91 0 01-5.21-7.19l-.18-.5-.55-.11a12.87 12.87 0 01-6.6-4.34 14 14 0 01-3.2-5.9l-.17-.7h-.72c-2-.16-4.57-1.81-6.5-4.25a11.72 11.72 0 01-2.74-6.23l-.05-.62-.59-.23a10.62 10.62 0 01-4.54-3.92 11.4 11.4 0 01-2.05-5.28v-.5l-.44-.26A9.74 9.74 0 0114.91 49c-1.23-2.24-1.66-4.68-1.08-6.17l.31-.82-.77-.4a8 8 0 01-3.23-4c-1.12-2.67-.93-5-.17-5.89l.81-1-1.15-.57a6.9 6.9 0 01-2.89-3.7c-.93-2.49-.64-4.57.1-5.29.75-.89 2.94-1.11 5.41-.06a6.85 6.85 0 013.63 3l.49 1.16 1-.77c.95-.73 3.27-.83 5.89.37a8.18 8.18 0 013.84 3.44l.37.78.83-.27c1.53-.53 3.93 0 6.15 1.29A10.33 10.33 0 0138 33.58l.25.43.52.05A11.21 11.21 0 0144 36.3a10.56 10.56 0 013.7 4.7l.21.58.62.07a12 12 0 016.13 3c2.36 2 3.93 4.63 4 6.68v.71l.69.19a14.06 14.06 0 015.78 3.41 13 13 0 014.08 6.78l.09.53.5.21a18.37 18.37 0 017 5.48 17.51 17.51 0 014.11 8.91l.07.57.52.23a20.14 20.14 0 018 7.23c2.73 4.07 4.07 8.67 3.5 12 0 .31.14 1.91.14 1.91a9.67 9.67 0 01-9.65 9.67h-.31l-.84.13c-3.07 1.71-9 .38-14.1-3.29z"/><path class="cls-1" d="M62.77 95.635l16.65-1.165.138 1.97-16.65 1.165zM54.05 84.32l.14 1.97 14.57-1.07-.15-1.94-14.56 1.04zm-8.69-10.99l.14 1.94 12.53-.9-.14-1.94-12.53.9zM32.63 62.69l.15 1.93 14.52-1.1-.15-1.93-14.52 1.1zm-9.92-10.814l13.733-1.126.16 1.943-13.734 1.127zM15.56 40.41l.11 1.96 10.18-.53-.1-1.97-10.19.54zm-4.92-11.07l.15 1.97 4.35-.31-.13-1.96-4.37.3z"/><path class="cls-1" d="M77.82 94.68l1.95.16 1.36-16.58-1.93-.15-1.38 16.57zM67.09 83.84l1.94.16 1.21-14.55-1.96-.15-1.19 14.54zM56.36 73l1.93.16 1.05-12.5-1.96-.17L56.36 73zM45.61 62.17l1.95.16 1.26-14.51-1.95-.17-1.26 14.52zM34.88 51.33l1.95.17 1.27-13.69-1.94-.19-1.28 13.71zM24.15 40.51l1.95.12.63-10.17-1.95-.13-.63 10.18zM13.43 29.64l1.93.16.37-4.33-1.95-.17-.35 4.34z"/><path class="cls-1" d="M6.58 22.4l84.58 86.21 1.39-1.37L7.97 21.05 6.58 22.4z"/><path class="cls-2" d="M97.53 120.59a10.8 10.8 0 10-10.79-10.8 10.8 10.8 0 0010.79 10.8z"/><path class="cls-1" d="M85.76 109.79A11.78 11.78 0 1097.53 98a11.79 11.79 0 00-11.77 11.79zm1.94 0a9.83 9.83 0 119.83 9.83 9.84 9.84 0 01-9.83-9.83zM89 9a4.48 4.48 0 004.46-4.49A4.49 4.49 0 0089 0H55a4.5 4.5 0 00-4.48 4.48A4.49 4.49 0 0055 9zm46.86 0a4.5 4.5 0 004.49-4.49A4.51 4.51 0 00135.86 0h-34a4.53 4.53 0 00-4.49 4.48A4.52 4.52 0 00101.86 9zM97.48 77.45H75v-2.21h22.48a3.6 3.6 0 100-7.2H75a4.48 4.48 0 00-8.93.61v11.44a4.55 4.55 0 002.08 3.8 3.61 3.61 0 002.18.74h27.15a3.59 3.59 0 100-7.18z"/><path class="cls-1" d="M139.84 48.56a3.72 3.72 0 00-2.19-.74h-19.2v-3.63h18.84a4.49 4.49 0 000-9h-34.78V33h.48a4.46 4.46 0 004.49-4.49v-8.8H132v8.8a4.48 4.48 0 109 0V15.23a4.5 4.5 0 00-4.5-4.49H103a4.41 4.41 0 00-3.93 2.35 4.07 4.07 0 00-.58 2.14v11h-4.87v-11a4.28 4.28 0 00-.56-2.13 4.45 4.45 0 00-3.93-2.36H55.68a4.5 4.5 0 00-4 2.35 4.44 4.44 0 00-.54 2.14v13.26a4.48 4.48 0 109 0v-8.8h24.52v8.8A4.47 4.47 0 0089.14 33a4.25 4.25 0 002-.51v2.74H55.83a3.94 3.94 0 00-.61.06 3.63 3.63 0 00-.67.15 4.48 4.48 0 00-3.2 4.29v41.64a4.48 4.48 0 009 0V44.19H80v3.63H67.9a3.59 3.59 0 000 7.17H80v1.75H67.9a3.59 3.59 0 000 7.17h69.75a3.72 3.72 0 001.81-.47 4.55 4.55 0 002.46-4v-7.11a4.5 4.5 0 00-2.08-3.77zM132.93 55v1.75h-14.48V55zM89 44.19h20.48v3.63H89zM89 55h20.48v1.75H89z"/><path class="cls-1" d="M137.14 77.45h-22.48v-2.21h22.48a3.6 3.6 0 000-7.2h-22.53a4.48 4.48 0 00-8.92.61v11.44a4.55 4.55 0 002.06 3.8 3.64 3.64 0 002.2.74h27.19a3.59 3.59 0 100-7.18zm1.54 76.86a4.13 4.13 0 00-1.45-.25H103.5v-14.43a6.45 6.45 0 10-12.9 0v14.43H58.11a2.91 2.91 0 00-.32 0h-.64a5.38 5.38 0 00-4.74 5.32V177a5.38 5.38 0 1010.76 0v-14H90.6v17.12l-34.75 28.79a5.82 5.82 0 007.42 9L97 190l33.68 27.87a5.82 5.82 0 007.42-9l-34.6-28.57V163h28.22v14a5.39 5.39 0 1010.77 0v-17.58a5.36 5.36 0 00-3.81-5.11zM77 26.93a5.07 5.07 0 11-5-5.06 5.08 5.08 0 015 5.06zm48.15 0a5.07 5.07 0 11-5.06-5.06 5.08 5.08 0 015.06 5.06z"/></svg>